<?xml version="1.0" encoding="UTF-8"?><svg id="Layer_2" xmlns="http://www.w3.org/2000/svg" viewBox="0 0 503.25 547.06"><defs><style>.cls-1{fill:#0096a6;}.cls-2{fill:#8ed5d8;}.cls-3{fill:#c71028;}.cls-4{fill:#1b2127;}</style></defs><g id="Layer_1-2"><path class="cls-2" d="m396.68,351.49c-8.88,14.37-20.2,27.13-33.34,37.65l10.35,4.4c12.29-10.55,22.96-22.97,31.5-36.8l2.63-4.25-8.51-5.26-2.63,4.25Z"/><path class="cls-2" d="m352.5,397.03l.99,11.23c-1.38.84-2.77,1.67-4.18,2.47-12.73,7.27-26.41,12.68-40.61,16.11l-7.22-8.63c15.02-3.09,29.51-8.53,42.87-16.16,2.77-1.59,5.49-3.26,8.15-5.02Z"/><path class="cls-2" d="m271.93,421.23c5.44,0,10.86-.3,16.24-.9l-4.2,10.43c-4,.31-8.01.47-12.04.47-12.49,0-24.64-1.47-36.29-4.25l-2.53-10.97c12.36,3.4,25.38,5.22,38.82,5.22Z"/><path class="cls-2" d="m173.23,382.89c13.6,12.43,29.53,22.32,47.06,28.94l-8.48,7.39c-15.12-6.31-29.04-14.93-41.32-25.41l2.74-10.92Z"/><path class="cls-2" d="m134.82,326.35c6.62,17.54,16.52,33.47,28.94,47.07l-10.92,2.74c-10.49-12.29-19.1-26.2-25.41-41.32l7.39-8.49Z"/><path class="cls-2" d="m125.42,274.72c0,13.43,1.82,26.44,5.22,38.81l-10.97-2.52c-2.78-11.65-4.25-23.8-4.25-36.29,0-4.05.15-8.06.46-12.03l10.44-4.21c-.6,5.33-.9,10.75-.9,16.24Z"/><path class="cls-2" d="m138.4,193.16l11.22.99c-10.09,15.26-17.4,32.5-21.21,51.01l-8.62-7.23c3.88-16.02,10.22-31.08,18.61-44.77Z"/><path class="cls-2" d="m189.97,141.42l9.54,5.97c-16.17,9.23-30.42,21.46-42,35.92l-4.4-10.35c10.56-12.31,22.99-22.97,36.86-31.54Z"/><path class="cls-2" d="m265.19,128.37c-19.07.86-37.19,5.39-53.7,12.89l.77-11.23c14.72-6.1,30.56-10,47.13-11.32l5.8,9.66Z"/><path class="cls-2" d="m331.59,129.97l.78,11.25c-16.8-7.66-34.91-12.02-53.71-12.85l5.8-9.67c16.37,1.28,32.2,5.08,47.13,11.27Z"/><path class="cls-2" d="m390.73,172.99l-4.4,10.35c-6.96-8.71-14.91-16.65-23.71-23.61-5.84-4.61-11.94-8.74-18.26-12.35l9.53-5.96c5.13,3.16,10.12,6.66,14.93,10.47,8,6.32,15.33,13.4,21.91,21.1Z"/><path class="cls-2" d="m441.26,224.52l-13.63,47.96-34.73-35.77,19.14-4.82c-4.1-13.35-10.15-26.07-17.85-37.73l11.22-.99c6.96,11.33,12.47,23.53,16.34,36.27l19.51-4.92Z"/><path class="cls-1" d="m194.22,482.52l-.46.47c-5.46,5.59-8.46,12.79-8.46,20.27,0,.07-.01.14-.02.21l-.36,2.04,16.15-16.15-6.84-6.84Z"/><path class="cls-1" d="m193.95,480.19c5.31-4.38,11.68-6.96,18.42-7.47l2.1-.16-1.82-1.05c-3.47-2-7.44-3.06-11.48-3.06-5.05,0-10.02,1.69-14,4.75l-.59.45,6.92,6.92.46-.38Z"/><path class="cls-1" d="m192.81,481.11l-6.93-6.93-.46.49c-6.8,7.27-8.15,18.03-3.35,26.77l1.05,1.91.17-2.17c.56-7.24,3.79-14.2,9.08-19.61l.45-.46Z"/><path class="cls-1" d="m195.47,481.52l-.56.45,6.77,6.77,14.03-14.03-1.6.02c-6.7.1-13.32,2.51-18.63,6.78Z"/><path class="cls-1" d="m210.61,497.68l.46-.55c4.39-5.28,6.81-11.83,6.81-18.44,0-.07.01-.14.02-.21l.36-2.04-14.44,14.44,6.79,6.79Z"/><path class="cls-1" d="m211,500.19c-5.42,5.16-12.44,8.36-19.75,9.01l-2.1.19,1.84,1.03c3.41,1.9,7.29,2.91,11.21,2.91,5.86,0,11.43-2.2,15.69-6.18l.49-.46-6.93-6.93-.46.44Z"/><path class="cls-1" d="m210.05,498.34l-6.84-6.84-15.73,15.73,1.6-.02c7.59-.11,14.87-3.1,20.49-8.41l.49-.46Z"/><path class="cls-1" d="m212.03,499.1l6.9,6.9.45-.59c5.64-7.34,6.33-17.29,1.76-25.35l-1.08-1.89-.14,2.18c-.42,6.68-3.02,13.01-7.51,18.3l-.39.46Z"/><path class="cls-1" d="m222.12,448.06c-.5-.24-1.01-.46-1.51-.68l6.24-19.19,6.48,2.11-4.95-21.52-16.66,14.5,6.48,2.11-6.23,19.17c-8.61-1.93-17.6-1.42-26.12,1.59-11.95,4.23-21.54,12.86-27,24.3-5.46,11.44-6.14,24.32-1.91,36.27,4.23,11.95,12.86,21.54,24.29,27,6.48,3.09,13.43,4.65,20.41,4.65,5.33,0,10.69-.91,15.86-2.74,11.95-4.23,21.54-12.86,27-24.3,11.27-23.61,1.23-52-22.39-63.27Zm-2.52,60.74c-4.78,4.78-11.14,7.41-17.92,7.41s-13.14-2.63-17.92-7.41c-4.78-4.78-7.41-11.14-7.41-17.92s2.63-13.14,7.41-17.92c4.78-4.78,11.14-7.41,17.92-7.41s13.14,2.63,17.92,7.41,7.41,11.14,7.41,17.92c0,6.78-2.63,13.14-7.41,17.92Z"/><polygon class="cls-1" points="113.42 437.18 111.07 438.54 117.52 449.71 130.43 449.71 130.43 446.99 119.09 446.99 113.42 437.18"/><path class="cls-1" d="m114.16,434.44l13.58-7.84-8.16-14.14-32.91,19,2.38,4.13c3.19,5.52,10.27,7.42,15.79,4.23l3.5-2.02h0s5.82-3.36,5.82-3.36h0Z"/><path class="cls-1" d="m87.32,436.59l-.9-1.56-3.17,1.83,5.42,9.4,6.19-3.57c-3.19-1.04-5.85-3.17-7.54-6.09Z"/><polygon class="cls-1" points="135.15 440.14 132.43 440.14 132.43 444.99 132.43 451.71 132.43 456.56 135.15 456.56 135.15 440.14"/><path class="cls-1" d="m150.83,379.75l4.82,4.82-14.25,14.25c-8.21-6.78-18.72-10.85-30.17-10.85-26.17,0-47.45,21.29-47.45,47.45s21.29,47.45,47.45,47.45,47.45-21.29,47.45-47.45c0-11.45-4.08-21.97-10.85-30.17l14.25-14.25,4.82,4.82,5.36-21.43-21.43,5.36Zm-13.68,78.81h-6.72v-6.85h-14.06l-7.03-12.18-3.5,2.02c-2.09,1.21-4.41,1.82-6.76,1.82-1.06,0-2.12-.13-3.17-.38l.6,1.05-8.58,4.95-7.42-12.86,4.91-2.83-1.48-2.57,36.37-21,10.16,17.6-15.31,8.84,5.09,8.82h10.18v-6.85h6.72v20.42Z"/><path class="cls-1" d="m329.5,485s-.03,0-.04,0c-.59,0-1.38.67-1.99,1.68l-3.13,5.15c-.46.77-.6,1.6-.39,2.41.25.97.98,1.83,2.12,2.49,1.46.84,2.34,1.92,2.69,3.29.57,2.21-.28,5.07-2.67,9.01-3.8,6.26-7.18,8.08-10.98,5.89-2.12-1.23-4.19-.87-5.26.91l-3.14,5.14c-.54.92-.73,1.55-.56,1.9.11.23.63.82,2.96,1.16,5.07.76,13.14-4.05,18.37-10.95,3.64-4.8,8.98-14.58,3.83-26.07-.56-1.25-1.21-1.99-1.79-2.02Z"/><path class="cls-1" d="m352.21,483.79c-4.23-11.95-12.86-21.54-24.3-27-7.51-3.58-15.5-5-23.26-4.53l-3.22-20.32,6.73-1.07-14.19-16.93-8.26,20.48,6.73-1.07,3.22,20.32c-13.13,3.39-24.74,12.32-31.02,25.49-5.46,11.44-6.14,24.32-1.91,36.27,4.23,11.95,12.86,21.54,24.3,27,6.58,3.14,13.52,4.62,20.37,4.62,17.73,0,34.77-9.97,42.9-27.01,5.46-11.44,6.14-24.32,1.91-36.27Zm-54.53,14.96c-9.76,0-17.71-5.46-17.71-12.17s7.94-12.18,17.71-12.18,17.71,5.46,17.71,12.18c0,3.38-2.02,6.58-5.58,8.88l.94,8.66-8.63-5.75c-1.46.26-2.95.39-4.43.39Zm31.37,15.56c-5.29,6.98-13.14,11.82-18.9,11.82-.47,0-.92-.03-1.36-.1-2.48-.37-3.9-1.09-4.47-2.28-.63-1.31.02-2.71.65-3.78h0s3.14-5.16,3.14-5.16c1.63-2.72,4.91-3.38,7.97-1.61,1.97,1.14,4.34,1.29,8.27-5.2,2.04-3.36,2.86-5.87,2.45-7.48-.21-.83-.77-1.49-1.76-2.06-1.61-.94-2.67-2.22-3.05-3.72-.34-1.32-.12-2.72.62-3.94l3.13-5.15c1.06-1.76,2.47-2.72,3.87-2.64,1.41.08,2.58,1.16,3.5,3.2,4.07,9.09,2.59,19.33-4.06,28.1Z"/><path class="cls-1" d="m308.24,494.07c3.27-1.94,5.15-4.67,5.15-7.5,0-5.61-7.05-10.18-15.71-10.18s-15.71,4.56-15.71,10.18,7.05,10.17,15.71,10.17c1.49,0,2.99-.14,4.46-.43l.4-.08,5.75,3.83-.62-5.68.55-.33Z"/><path class="cls-1" d="m388.46,454.51v2.75c0,.13.02.28.05.42.47,2.26,4.68,4.51,10.42,4.8.12-.36.43-.63.81-.68l9.71-1.41,2.9-5.87h0c-2.55,2.07-7.03,3.39-11.95,3.39s-9.4-1.32-11.94-3.4Z"/><path class="cls-1" d="m400.4,450.9c-4.92,0-9.4-1.32-11.94-3.4v2.75c0,.13.02.28.05.42.51,2.44,5.42,4.89,11.89,4.84,6.47.05,11.39-2.4,11.9-4.84.03-.14.04-.29.04-.42v-2.75c-2.54,2.08-7.02,3.4-11.94,3.4Z"/><path class="cls-1" d="m400.37,448.5c6.58,0,11.92-2.39,11.92-5.34s-5.34-5.33-11.92-5.33-11.92,2.39-11.92,5.33,5.33,5.34,11.92,5.34Z"/><path class="cls-1" d="m418.38,461.74l-3.68-7.46-.02.03-3.67,7.43c-.14.3-.42.5-.75.55l-8.23,1.2,1.29,1.26,3.91,3.8.76.74c.23.23.34.56.28.89l-.08.48-1.32,7.71,7.36-3.87c.15-.07.3-.11.47-.11.16,0,.31.04.46.11l7.36,3.87-1.4-8.19c-.06-.33.05-.66.28-.89l5.96-5.8-8.23-1.2c-.33-.05-.61-.25-.75-.55Z"/><path class="cls-1" d="m400.4,464.91c-4.92,0-9.4-1.31-11.94-3.39v2.75c0,.13.02.27.05.42.51,2.43,5.42,4.89,11.89,4.84,1.63.01,3.16-.13,4.55-.4l-4.33-4.22h-.22Z"/><path class="cls-1" d="m450.25,442.76c-4.23-11.95-12.86-21.54-24.3-27-14.76-7.04-31.37-5.76-44.51,1.95l-11.85-16.3,5.52-4.01-20.33-8.64,1.94,22,5.52-4.01,11.84,16.29c-4.64,4.1-8.56,9.17-11.39,15.1-5.46,11.44-6.14,24.32-1.91,36.27,4.23,11.95,12.86,21.54,24.3,27,6.58,3.14,13.52,4.62,20.37,4.62,17.73,0,34.77-9.97,42.9-27.01,5.46-11.44,6.14-24.32,1.91-36.27Zm-20.04,20.74l-7.03,6.86,1.66,9.67c.06.38-.09.76-.4.98-.18.13-.38.19-.59.19-.16,0-.32-.04-.46-.11l-8.69-4.57-8.7,4.57c-.33.17-.74.14-1.05-.08-.31-.22-.46-.6-.4-.98l1.5-8.76c-1.75.4-3.67.63-5.67.65-7.68-.08-14.13-3.16-14.31-7.64v-20.98c.87-10.08,27.26-10.83,28.62,0v7.72h0c.38,0,.72.22.89.56l4.35,8.81,9.71,1.41c.38.05.69.32.81.68.12.36.02.76-.25,1.02Z"/><path class="cls-4" d="m288.09,247.79c.66-.13,1.05.26,1.19,1.19.13.92,0,1.61-.4,2.07-.72.59-1.19,1.1-1.38,1.53-.2.43-.66.71-1.38.84-.39-.06-.74-.08-1.04-.05-.29.04-.55-.51-.74-1.63.26-.72.68-1.45,1.24-2.17.56-.72,1.4-1.32,2.52-1.78Z"/><path class="cls-4" d="m288.39,260.64c.33,3.16.56,6.64.69,10.42.13,3.79.36,7.76.69,11.9.26,2.11.53,3.75.79,4.94.26,1.19.46,2.31.6,3.36-1.06.2-1.88.18-2.47-.05-.6-.23-1.15-.51-1.68-.84-.13-1.05-.28-2.8-.44-5.24-.16-2.44-.33-5.09-.49-7.95-.16-2.87-.33-5.64-.49-8.35-.16-2.7-.32-4.84-.44-6.42.26-.13.48-.33.64-.59.16-.26.35-.5.55-.69.2-.2.46-.36.79-.5.33-.13.76-.13,1.28,0Z"/><path class="cls-4" d="m325.24,280.49c-1.32.86-2.57,1.68-3.76,2.47-.99.72-1.99,1.45-3.01,2.17-1.03.72-1.8,1.35-2.32,1.88.2-1.18.41-2.81.64-4.89.23-2.07.51-4.26.84-6.57.32-2.3.71-4.59,1.13-6.86.43-2.27.94-4.2,1.53-5.78-.05-.02-.1-.03-.15-.05.05-.02.11-.03.15-.05-.99-.72-2.27-1.1-3.85-1.14-1.58-.03-3.13.12-4.65.44-1.52.59-2.85,1.25-4,1.98-1.15.73-2.12,1.43-2.92,2.12-.79.69-1.43,1.32-1.92,1.88-.49.56-.8.91-.94,1.04-.72.86-1.51,1.98-2.37,3.36-.86,1.38-1.65,2.9-2.37,4.55-.72,1.64-1.27,3.37-1.63,5.18-.36,1.81-.38,3.57-.05,5.29.14.39.32.79.55,1.18.23.4.56.74.99,1.04.43.3,1.02.5,1.78.6.76.1,1.76.05,3.01-.15-.13,0,.15-.08.84-.25.69-.16,1.58-.59,2.67-1.28,1.08-.69,2.3-1.73,3.65-3.11,1.35-1.38,2.62-3.29,3.8-5.73.07,1.85.07,3.64,0,5.38-.07,1.75-.23,3.41-.5,4.99-1.12.92-2.09,1.71-2.91,2.37-.83.66-1.6,1.27-2.32,1.83-.73.56-1.43,1.17-2.12,1.83-.69.66-1.47,1.45-2.32,2.37-.53.52-1.48,1.51-2.87,2.96-1.38,1.45-2.8,3.23-4.25,5.33-1.44,2.11-2.69,4.45-3.75,7.01-1.05,2.57-1.51,5.17-1.38,7.8.13,2.37.68,4.15,1.63,5.33.95,1.18,2.12,1.92,3.5,2.22,1.39.29,2.9.21,4.55-.25,1.64-.46,3.23-1.15,4.74-2.07,1.12-.72,2.01-1.35,2.67-1.88.66-.52,1.25-1.15,1.78-1.88.59-.86,1.13-1.63,1.63-2.32.5-.69.97-1.55,1.43-2.57.46-1.02.91-2.34,1.34-3.95.43-1.61.84-3.74,1.24-6.37.33-2.31.48-4.59.44-6.87-.03-2.27.02-4.53.15-6.77,0-.07.01-.44.05-1.14.03-.69.05-1.07.05-1.14.79-.92,1.81-2.03,3.06-3.31,1.25-1.28,2.67-2.82,4.25-4.59.13-.13.34-.38.64-.74.3-.36.6-.74.89-1.14.3-.39.53-.76.69-1.09.16-.33.18-.56.05-.69Zm-12.45,17.09c-.13,6.19-.79,11.25-1.97,15.17-1.19,3.92-2.73,6.96-4.64,9.14-1.65,1.58-3.44,2.75-5.39,3.51-1.94.76-3.74.51-5.38-.74-.92-1.52-1.33-3.08-1.24-4.69.1-1.61.51-3.48,1.24-5.58.53-1.91,1.56-4,3.11-6.27,1.55-2.27,3.9-4.89,7.06-7.85.4-.33,1.15-.99,2.27-1.97,1.12-.99,2.57-2.21,4.35-3.66.2-.07.36,0,.5.2.26.33.29,1.25.09,2.76Zm2.62-31.56c-.03,1.28-.38,2.68-1.04,4.2-.4.99-1.02,2.3-1.88,3.95-.85,1.65-1.89,3.33-3.11,5.04-1.22,1.71-2.57,3.24-4.05,4.59-1.48,1.35-3.08,2.22-4.79,2.62-.59.13-1.09.1-1.48-.1-.39-.2-.63-.43-.69-.69-.07-.4-.1-.95-.1-1.68s.15-1.59.45-2.62c.29-1.02.77-2.24,1.43-3.65.66-1.41,1.61-3.01,2.86-4.79,2.77-3.36,5.34-5.63,7.71-6.81,2.01-1.01,3.57-1.48,4.69-1.45.02.32.02.78,0,1.4Z"/><path class="cls-4" d="m328,220.14c.07.2.13,1.04.2,2.52.07,1.48.12,3.37.15,5.68.03,2.3.04,4.92.04,7.85s.01,5.94.05,9.04c.03,3.1.04,6.16.04,9.19v18.27c0-3.23,1.76-5.89,3.12-8,1.35-2.11,2.58-3.23,3.7-3.36,1.32-.26,2.33.02,3.02.84.69.83,1.25,1.94,1.68,3.36.43,1.41.85,3,1.29,4.74.43,1.74,1,3.41,1.73,4.99.72,1.58,1.71,2.98,2.96,4.2,1.25,1.22,2.96,1.96,5.13,2.22-1.71,1.45-3.24,2.11-4.6,1.98-1.35-.13-2.55-.72-3.6-1.78-1.06-1.05-1.98-2.41-2.77-4.05-.79-1.65-1.45-3.26-1.97-4.84-.53-1.58-.96-2.96-1.29-4.15-.33-1.18-.56-1.88-.69-2.07-.4-.53-.82-.56-1.28-.1s-.94,1.19-1.44,2.17c-.49.99-.96,2.12-1.38,3.41-.43,1.28-.8,2.5-1.14,3.65-.33,1.15-.59,2.13-.79,2.92-.2.79-.3,1.15-.3,1.08-.2.86-.36,1.98-.49,3.36-.13,1.38-.21,2.75-.25,4.1-.03,1.35-.03,2.57,0,3.66.04,1.09.12,1.76.25,2.02-.46,0-.73-.15-1.59-.44-.85-.3-1.58-.44-1.58-.44v-18.42c0-3.92-.41-8.11-.44-12.59-.04-4.48-.29-9.01-.39-13.58-.1-4.58-.31-9.12-.44-13.63-.13-4.51-.37-8.78-.64-12.79,0-.13.37-.38,1.16-.74.79-.36,1.62-.45,2.54-.25Z"/><path class="cls-4" d="m360.99,261.82c2.83-.2,5.61-.41,8.35-.64,2.73-.23,5.58-.48,8.54-.74.66.07,1.09.41,1.29,1.04.2.63-.07,1-.79,1.14-2.44.26-5.24.63-8.4,1.09-3.16.46-6.16,1.06-8.99,1.78.13,2.04.2,4.13.2,6.27s.05,4.25.15,6.32c.1,2.08.3,4.08.6,6.03.29,1.94.77,3.74,1.43,5.38.92,1.12,1.84,1.78,2.76,1.98.92.2,1.8.15,2.62-.15.82-.29,1.58-.76,2.27-1.38.69-.63,1.3-1.24,1.83-1.83.46-.46.84-.46,1.14,0,.3.46.02,1.15-.84,2.08-.4.46-.89.95-1.48,1.48-.59.53-1.3.97-2.12,1.33-.83.36-1.75.59-2.76.69-1.03.1-2.13-.02-3.31-.35-1.52-.39-2.63-1.61-3.36-3.65-.72-2.04-1.27-4.43-1.63-7.16-.36-2.73-.6-5.58-.74-8.54-.13-2.96-.3-5.63-.49-8-2.9.26-5.02.49-6.37.69-1.35.2-2.32.33-2.91.4-.59.07-.99.04-1.19-.1-.2-.13-.56-.43-1.08-.89.06-.33.08-.64.05-.94-.03-.3-.03-.54,0-.74.03-.2.16-.4.39-.59.23-.2.68-.36,1.34-.49.99-.26,2.42-.41,4.29-.44,1.88-.03,3.71-.18,5.49-.45-.07-2.1-.13-3.75-.2-4.94-.06-1.19-.13-2.23-.2-3.11-.07-.89-.12-1.76-.15-2.62-.04-.86-.05-1.98-.05-3.36,0-.33.18-.58.54-.74.36-.16.77-.26,1.24-.29.46-.04.89.03,1.28.2.4.16.66.41.79.74.2.59.33,1.47.4,2.62.07,1.15.12,2.37.15,3.65.03,1.29.04,2.59.04,3.9s-.03,2.44-.09,3.36Z"/><path class="cls-3" d="m232.9,289.2h13.65v6.83h-13.65v27.31h-9.1v-27.31h-59.17v-7.94l58.35-58.06h9.92v59.17Zm-9.1-49.68l-46.77,49.68h46.77v-49.68Z"/><path class="cls-4" d="m272.52,275.74c.93.75,4.06,3.22,4.66,4.3.59,1.09.81,2.27.64,3.56-.16,1.28-.69,2.58-1.58,3.9-.89,1.32-2.16,2.54-3.8,3.65-2.24,1.32-4.16,2.26-5.78,2.82-1.61.56-2.95.87-4,.94-1.05.07-1.81-.05-2.27-.34-.46-.3-.63-.68-.49-1.14.06-1.32.72-2.83,1.97-4.55,1.25-1.71,1.72-2.66,3.18-4.38.95-1.12,1.56-1.85,2.79-3.39.63-.78,1.9-2.05,2.89-3.52.66-.98-3.67,1.7-4.82,2.51-1.15.82-2.06,1.41-4.44,3.95-2.83,3.03-4.77,6.32-5.83,9.88-.33,2.17.02,3.65,1.04,4.45,1.02.79,2.37,1.1,4.05.94,1.68-.16,3.51-.68,5.49-1.53,1.98-.86,3.82-1.88,5.53-3.06,2.63-1.78,4.77-3.44,6.42-4.99,1.64-1.55,2.73-3.06,3.26-4.54.52-1.48.49-3-.1-4.54-.59-1.55-1.85-3.28-3.76-5.19l-2.57-2.67c-.92-.85-2.24-1.88-3.95-3.06-1.72-1.18-3.57-2.52-5.58-4-2.01-1.48-4.12-3.06-6.32-4.74-2.21-1.68-4.28-3.47-6.22-5.38-1.94-1.91-3.67-3.87-5.19-5.88s-2.64-4.1-3.36-6.27c-.66-1.97-.66-3.8,0-5.48.65-1.68,1.79-3.09,3.41-4.24,1.61-1.15,3.59-1.99,5.93-2.52,2.34-.53,4.82-.62,7.45-.3.99.2,1.84.43,2.57.69.73.26,1.38.58,1.98.94.59.36,1.19.78,1.78,1.24.59.46,1.29,1.02,2.08,1.68-.13-.92-.29-1.58-.45-1.98-.16-.4-.54-1.25-1.13-2.57-1.65-1.58-3.28-2.75-4.89-3.5-1.61-.76-3.21-1.2-4.79-1.33-1.58-.13-3.15-.03-4.69.3-1.55.33-3.08.73-4.6,1.19-.72.26-1.66.79-2.81,1.58-1.16.79-2.21,1.89-3.16,3.31-.96,1.42-1.64,3.18-2.08,5.28-.43,2.11-.25,4.58.54,7.41.59,2.24,1.74,4.51,3.46,6.81,1.71,2.31,3.67,4.51,5.88,6.62,2.21,2.11,4.51,4.12,6.92,6.03,2.4,1.91,4.61,3.59,6.62,5.04,2.01,1.45,3.65,2.64,4.94,3.56,1.29.92,2.26,1.81,3.2,2.56Z"/><path class="cls-1" d="m116.35,313.33l2.11,6.48-19.18,6.23c-7.32-16.77-24.06-28.53-43.51-28.53-26.17,0-47.45,21.29-47.45,47.45s21.29,47.45,47.45,47.45,47.45-21.29,47.45-47.45c0-3.53-.4-6.97-1.13-10.28l19.17-6.23,2.11,6.48,14.5-16.66-21.52-4.95Zm-42,13.97c0,.55-.45,1-1,1h-6.37c-4.2,0-4.96,1.64-4.96,4.86v6.68h10.92c.29,0,.56.12.75.34s.28.5.24.79l-1.55,12.03c-.06.5-.49.87-.99.87h-9.36v20c0,.55-.45,1-1,1s-1-.45-1-1v-21c0-.55.45-1,1-1h9.48l1.29-10.03h-10.78c-.55,0-1-.45-1-1v-7.68c0-3.39.83-6.86,6.96-6.86h5.37v-8.87c-1.65-.16-4.79-.37-8.28-.37-3.73,0-6.98.99-9.4,2.86-3.32,2.57-5.07,6.73-5.07,12.05v8.87c0,.55-.45,1-1,1h-9.39v10.03h9.39c.55,0,1,.45,1,1v20.67c0,.55-.45,1-1,1s-1-.45-1-1v-19.67h-9.39c-.55,0-1-.45-1-1v-12.03c0-.55.45-1,1-1h9.39v-7.87c0-5.96,2.02-10.67,5.85-13.63,2.77-2.14,6.45-3.28,10.62-3.28s8.23.33,9.42.48c.5.07.87.49.87.99v10.76Z"/><path class="cls-1" d="m28.72,239.86s0,0,0,0c4.83,1.42,11.42,2.28,18.47,2.28.08,0,.17,0,.26,0,6.54-.02,12.23-.73,16.65-1.82,0,0,.01,0,.02-.01.01,0,.02,0,.03,0,.72-.18,1.4-.36,2.05-.56.01,0,.02-.02.04-.02.01,0,.02,0,.04,0,4.79-1.45,7.59-3.36,7.59-5.16,0-1.56-2.39-3.79-9.02-5.5-2.11,1.97-9.36,3.47-17.39,3.47s-15.07-1.46-17.28-3.4c-6.71,1.75-9.13,4.02-9.13,5.59,0,.58.31,1.19.93,1.81,1.29,1.29,3.66,2.42,6.74,3.33,0,0,0,0,0,0Z"/><path class="cls-1" d="m40.84,247.63c.09,0,.14,0,.19,0h.15c1.12,0,2.13-.31,2.85-.86.56-.43,1.21-1.24,1.3-2.65-3.11-.06-6.1-.29-8.88-.65.3,2.06,1.82,4.06,4.39,4.16Z"/><path class="cls-1" d="m31.38,242.59c.03.35.11.74.29,1.19.47,1.21,1.19,1.95,1.44,2l1.25.13.46,1.18c2.5,6.3,6.54,14.69,12.65,14.78,5.74.11,9.63-7.49,12.62-14.93l.47-1.14,1.24-.13c.32-.03.99-.71,1.43-1.89.17-.45.25-.89.29-1.29-.97.22-1.99.41-3.02.58-.17,3.13-2.4,6.39-6.39,6.54-.03,0-.08,0-.14,0-.05,0-.1,0-.15,0-2.98,0-6.07-1.72-6.25-5.49-.04,0-.07,0-.11,0-.04,0-.08,0-.12,0-.12,2.33-1.33,3.64-2.08,4.21-1.07.82-2.51,1.27-4.07,1.27-.1,0-.18,0-.25,0-.08,0-.14,0-.2,0-3.91-.15-6.12-3.35-6.32-6.45-1.05-.17-2.06-.37-3.03-.58Z"/><path class="cls-1" d="m61.88,222.78c-3.09-9.37-5.73-11.53-7.51-11.53-1.4,0-2.48.57-3.44,1.08-1.04.56-2.08,1.11-3.48,1.11s-2.44-.55-3.45-1.09c-.99-.53-2.07-1.1-3.47-1.1-3.77,0-6.11,5.69-7.75,11.4,2.98,1.43,8.47,2.31,14.67,2.31s11.37-.83,14.43-2.18Z"/><path class="cls-1" d="m63.37,227.75c-.3-1.09-.59-2.11-.88-3.06-3.38,1.43-8.86,2.26-15.04,2.26s-11.86-.87-15.2-2.35c-.28,1.06-.53,2.1-.77,3.08.78.84,6.35,2.86,15.97,2.86s14.77-1.86,15.92-2.79Z"/><path class="cls-1" d="m53.87,247.63s.08,0,.12,0c2.66-.1,4.19-2.14,4.47-4.23-2.86.39-5.86.63-8.87.71.17,2.57,2.29,3.52,4.14,3.52h.15Z"/><path class="cls-1" d="m65.92,245.25l-.71-.39.23-.77c.2-.65.3-1.28.3-1.84,0-.09,0-.19-.02-.29-.06.02-.13.03-.19.05,0,.08.01.16.01.24,0,.68-.16,1.47-.44,2.23-.53,1.43-1.62,3.02-3.09,3.18l-.07.04c-3.22,8-7.45,16.17-14.35,16.18-.05,0-.11,0-.16,0-7.31-.11-11.76-9.21-14.48-16.05l-.07-.06c-1.41-.16-2.55-1.86-3.09-3.27-.29-.77-.44-1.48-.44-2.11,0-.09,0-.19.02-.28-.06-.02-.12-.03-.18-.05-.02.13-.03.25-.03.33,0,.48.1,1.05.3,1.69l.24.78-.71.39c-2.03,1.12-5.05,3.28-7.93,7.25h0s.04.14.04.14l10.63,7.53-2.99,3.74s-.03.08-.01.11c0,.02.05.04.09.04h37.28c.09,0,.13-.04.13-.1l-.16-.2-2.89-3.6,10.63-7.54s.07-.07.08-.08c-2.9-4.02-5.93-6.18-7.96-7.31Z"/><path class="cls-1" d="m132.71,252.67l-16.93-14.19-1.07,6.73-19.9-3.15c.06-.96.1-1.92.1-2.89,0-26.17-21.29-47.45-47.45-47.45S0,213.01,0,239.18s21.29,47.45,47.45,47.45c22.07,0,40.67-15.14,45.95-35.58l19.89,3.15-1.07,6.73,20.48-8.26Zm-56.86.22c-.09.53-.41,1.03-.88,1.37l-8.9,6.31,1.52,1.89c.41.39.64.94.64,1.51,0,1.16-.94,2.1-2.1,2.1H28.81c-.81,0-1.55-.47-1.9-1.19-.34-.72-.24-1.59.25-2.22l1.67-2.09-8.9-6.31c-.47-.33-.8-.83-.89-1.37-.09-.55.05-1.1.38-1.57,2.8-3.85,5.74-6.14,7.91-7.44-.12-.54-.18-1.03-.18-1.5,0-.27.03-.57.09-.9-2.99-.97-5.32-2.17-6.69-3.54-1.01-1-1.52-2.09-1.52-3.22,0-3.05,3.72-5.7,10.48-7.48.33-1.34.68-2.75,1.06-4.17,0-.13.04-.26.11-.38,1.85-6.7,4.58-13.44,9.84-13.44,1.9,0,3.33.76,4.38,1.32.94.5,1.65.88,2.55.88s1.57-.36,2.5-.85c1.08-.58,2.51-1.34,4.42-1.34,5.33,0,8.75,10.03,10.9,17.86,6.83,1.75,10.59,4.39,10.59,7.46s-3.28,5.21-8.2,6.82c.04.29.08.59.08.87,0,.51-.06,1.07-.19,1.64,2.17,1.31,5.12,3.59,7.91,7.44.34.47.47,1.02.38,1.57Z"/><path class="cls-1" d="m99.94,140.95c-1.1-1.91-2.63-3.17-4.66-3.87-2.09-.71-4.91-.84-8.38-.37-1.78.25-3.14.29-4.14.12-1.18-.2-2.09-.81-2.65-1.78-.49-.85-.53-1.81-.13-2.77.37-.87,1.07-1.61,2.07-2.19,1.45-.83,3.07-1.46,4.82-1.87,1.13-.26,2.25-.43,3.34-.5l-3.46-5.99c-1.68.44-3.69,1.25-5.98,2.41l-.84.43-2.4-4.16-3.55,2.05,2.48,4.29-.64.54c-2.27,1.91-3.69,4.07-4.23,6.4-.54,2.32-.17,4.54,1.13,6.79,2.23,3.86,5.98,5.34,11.48,4.53,1.62-.24,2.85-.37,3.75-.39.99-.02,1.75.08,2.35.29.7.25,1.29.77,1.73,1.55.53.91.64,1.89.31,2.81-.31.88-.97,1.61-1.97,2.19-2.63,1.52-5.85,2.21-9.6,2.06l3.61,6.25c.51-.02,1.44-.17,3.11-.69,1.85-.58,3.6-1.33,5.21-2.22l.86-.48,2.6,4.51,3.55-2.05-2.85-4.93.56-.54c1.34-1.31,2.33-2.7,2.94-4.15.6-1.43.86-2.87.78-4.27-.08-1.4-.49-2.74-1.21-3.99h0Z"/><path class="cls-1" d="m157.89,191.87l-8.64-20.33-4.01,5.52-16.31-11.85c.69-1.18,1.35-2.39,1.94-3.64,5.46-11.44,6.14-24.32,1.91-36.27-4.23-11.95-12.86-21.54-24.3-27-23.61-11.27-51.99-1.23-63.27,22.39-5.46,11.44-6.14,24.32-1.91,36.27,4.23,11.95,12.86,21.54,24.3,27,6.48,3.09,13.43,4.65,20.41,4.65,5.33,0,10.69-.91,15.86-2.74,7.72-2.73,14.45-7.31,19.72-13.29l16.3,11.84-4.01,5.52,22,1.94Zm-55.44-32.3l-7.01,4.05-2.63-4.55c-1.48.76-3.07,1.4-4.72,1.92-2.12.67-3.55.9-4.49.73l-.45-.08-6.04-10.46,1.96.22c4.14.46,7.61-.1,10.3-1.66.57-.33.94-.71,1.08-1.12.13-.37.08-.72-.16-1.14-.2-.35-.43-.58-.68-.66-.25-.09-.72-.2-1.63-.17-.8.02-1.98.14-3.5.36-6.31.93-10.86-.92-13.51-5.51-1.54-2.67-1.99-5.44-1.34-8.24.59-2.53,2.02-4.86,4.26-6.92l-2.65-4.59,7.01-4.05,2.46,4.27c2.42-1.17,4.55-1.95,6.32-2.33l.71-.15,5.95,10.3-1.8-.06c-1.46-.05-3,.11-4.57.48-1.56.36-3,.92-4.28,1.66-.62.36-1.04.78-1.24,1.24-.2.48-.1.76.02.98.26.45.66.71,1.25.81.79.13,1.97.09,3.53-.13,3.78-.51,6.91-.36,9.29.45,2.48.84,4.42,2.45,5.75,4.76.88,1.52,1.38,3.17,1.48,4.88.1,1.71-.22,3.44-.93,5.16-.62,1.49-1.58,2.92-2.84,4.26l3.08,5.33Z"/><path class="cls-1" d="m167.7,65.09c-3.76,0-6.82,3.06-6.82,6.82s3.06,6.82,6.82,6.82,6.82-3.06,6.82-6.82-3.06-6.82-6.82-6.82Z"/><path class="cls-1" d="m169.87,53.98c.51,0,.93-.42.93-.93s-.42-.93-.93-.93h-4.34c-.51,0-.93.42-.93.93s.42.93.93.93h4.34Z"/><path class="cls-1" d="m211.56,92.66c11.27-23.61,1.23-52-22.39-63.27-23.61-11.27-51.99-1.23-63.27,22.38-11.27,23.61-1.23,51.99,22.38,63.27,6.58,3.14,13.52,4.62,20.37,4.62,6.01,0,11.94-1.15,17.47-3.33l9.16,17.97-6.07,3.1,18.72,11.72,1.53-22.03-6.07,3.1-9.16-17.97c7.26-4.61,13.36-11.24,17.32-19.56Zm-28.92-4.4l-9.45-9.45c-1.51,1.2-3.41,1.92-5.48,1.92-4.86,0-8.82-3.96-8.82-8.82s3.96-8.82,8.82-8.82,8.82,3.96,8.82,8.82c0,2.07-.72,3.98-1.92,5.48l9.45,9.45-1.41,1.41Zm-20.5-35.21c0-1.87,1.52-3.4,3.4-3.4h4.34c1.87,0,3.4,1.52,3.4,3.4s-1.52,3.4-3.4,3.4h-4.34c-1.87,0-3.4-1.52-3.4-3.4Zm-4.32,44.87c-2.59,0-4.71-2.11-4.71-4.71v-42c0-2.59,2.11-4.71,4.71-4.71h19.76c2.59,0,4.71,2.11,4.71,4.71v30.57h-2v-30.57c0-1.49-1.21-2.71-2.71-2.71h-19.76c-1.49,0-2.71,1.21-2.71,2.71v42c0,1.49,1.21,2.71,2.71,2.71h19.76c1.49,0,2.71-1.21,2.71-2.71v-4.02h2v4.02c0,2.59-2.11,4.71-4.71,4.71h-19.76Z"/><path class="cls-1" d="m319.38,47.45c0-26.17-21.29-47.45-47.45-47.45s-47.45,21.29-47.45,47.45c0,24.63,18.87,44.94,42.91,47.23v20.14h-6.82l11.36,18.94,11.36-18.94h-6.82v-20.14c24.04-2.3,42.91-22.6,42.91-47.23Zm-58.63,15.85c-3.99-2.3-5.03-7.4-3.29-10.42l5.23-9.07c-4.8-3.27-6.72-9.07-4.24-13.36l3.83-6.63c1.07-1.85,2.3-3.47,3.48-4.57,1.5-1.4,2.76-1.83,3.73-1.26l1.32.76c.26-.2.56-.35.89-.43.66-.18,1.36-.09,1.95.26,1.23.71,1.65,2.28.94,3.51h0c-.48.82-1.34,1.29-2.23,1.29-.44,0-.88-.11-1.28-.34-.6-.34-1.02-.9-1.2-1.56-.09-.33-.11-.66-.07-.98l-1.27-.73c-.54.06-2.49,1.52-4.54,5.07l-3.83,6.63c-2.06,3.58-.11,8.58,4.36,11.16,2.2,1.27,4.66,1.76,6.92,1.39,2.19-.36,3.94-1.5,4.92-3.19l3.83-6.63c2.05-3.55,2.34-5.97,2.12-6.47l-1.27-.73c-.26.2-.56.35-.89.43-.22.06-.45.09-.67.09-.45,0-.89-.12-1.28-.35-.59-.34-1.02-.9-1.2-1.56s-.09-1.36.26-1.95c.34-.59.9-1.02,1.56-1.2.67-.18,1.36-.09,1.95.26.59.34,1.02.9,1.2,1.56.09.33.11.66.07.99l1.32.76c2.27,1.31.16,6.38-1.45,9.16l-3.83,6.63c-1.29,2.23-3.54,3.71-6.33,4.17-.6.1-1.21.15-1.83.15-1.86,0-3.76-.45-5.53-1.31l-5.23,9.06c-1.22,2.11-.35,6.01,2.55,7.68,2.9,1.68,6.71.48,7.93-1.63l2.52-4.37c1.74-3.02,6.67-4.67,10.66-2.36,3.99,2.3,5.03,7.4,3.29,10.42l-2.15,3.72c1.41,1.34,1.79,3.52.78,5.27-.8,1.38-2.25,2.15-3.74,2.15-.73,0-1.47-.19-2.15-.58-1-.58-1.71-1.5-2.01-2.62-.3-1.11-.14-2.27.43-3.27,1.02-1.76,3.09-2.52,4.96-1.97l2.15-3.72c1.22-2.11.35-6.01-2.55-7.68-2.9-1.68-6.71-.48-7.93,1.63l-2.52,4.37c-1.74,3.01-6.67,4.67-10.66,2.36Z"/><path class="cls-1" d="m282.21,68.47c-.36-.21-.76-.31-1.15-.31-.8,0-1.58.41-2,1.15-.31.53-.39,1.16-.23,1.75.16.6.54,1.09,1.08,1.4,1.1.64,2.52.26,3.15-.84.64-1.1.26-2.52-.84-3.15Z"/><path class="cls-1" d="m272.09,21.31c.27.16.62.06.78-.21.16-.27.06-.62-.21-.78-.09-.05-.19-.08-.29-.08-.05,0-.1,0-.15.02-.15.04-.27.13-.35.27-.08.13-.1.29-.06.43.04.15.13.27.27.35Z"/><path class="cls-1" d="m279.81,24.44c-.09-.05-.19-.08-.29-.08-.05,0-.1,0-.15.02-.15.04-.27.13-.35.27-.08.13-.1.29-.06.43.04.15.13.27.27.35.13.08.29.1.44.06.15-.04.27-.13.35-.27.08-.13.1-.29.06-.43-.04-.15-.13-.27-.27-.35Z"/><path class="cls-1" d="m375.1,24.76c-26.17,0-47.45,21.29-47.45,47.45,0,16.8,8.78,31.57,21.98,40.01l-9.16,17.97-6.07-3.1,1.53,22.03,18.72-11.72-6.07-3.1,9.15-17.96c5.39,2.13,11.24,3.31,17.38,3.31,26.17,0,47.45-21.29,47.45-47.45s-21.29-47.45-47.45-47.45Zm-18.2,29.1c.07-.3.45-.78,1.27-1.61,2.66-2.67,6.15-4.62,10.1-5.64,2-.52,4.26-.79,6.55-.79,1.73,0,3.45.15,5.12.45,2.52.45,5.37,1.45,7.63,2.67,1.08.59,2.64,1.61,3.62,2.37.82.64.86.83.86,1.14,0,.56-.49.93-.94.93-.1,0-.2-.02-.29-.05-.07-.03-.46-.28-.93-.64-2.07-1.57-4.14-2.71-6.31-3.5-2.7-.98-5.73-1.5-8.77-1.5-2.32,0-4.53.3-6.58.88-3.7,1.05-7.1,3.11-9.32,5.65-.49.56-.66.66-.68.67-.07.03-.24.07-.43.07-.16,0-.27-.02-.3-.04-.41-.18-.67-.65-.58-1.06Zm-.9,8.37c1.91-2.87,4.2-5.54,5.99-6.96,2.91-2.32,6.26-3.69,10.23-4.17.68-.08,2-.14,3.22-.14.6,0,1.15.01,1.51.05,4.3.38,8.34,2.06,12.02,4.99,1.57,1.25,4.08,3.89,4.8,5.05.28.46.24.9-.12,1.22-.2.18-.42.27-.64.27s-.43-.1-.61-.29c-.15-.16-.52-.6-.82-.98-.71-.92-2.58-2.81-3.58-3.62-3.94-3.2-8.24-4.82-12.8-4.82-.23,0-.45,0-.68.01-4.05.14-7.27,1.11-10.15,3.04-2.33,1.56-4.49,3.92-6.81,7.44-1.05,1.6-1.06,1.6-1.25,1.69-.19.09-.32.13-.45.13-.07,0-.15-.01-.24-.04-.41-.11-.65-.43-.68-.89-.02-.3.01-.41,1.04-1.96Zm.97,29c.11-.21.17-.29,1.2-1.03,5.25-3.78,9.97-8.23,12.95-12.21,1.17-1.57,1.96-2.82,2.71-4.32.41-.82.47-.89.6-.98.13-.09.16-.11.44-.12h.14c.21,0,.29.03.29.03.48.2.7.74.52,1.25-.12.34-.8,1.68-1.25,2.44-2.96,4.93-8.34,10.38-15.13,15.33-.67.49-1.19.82-1.29.87-.1.04-.2.06-.31.06-.13,0-.27-.03-.41-.1-.21-.1-.36-.26-.49-.52-.05-.12-.03-.55.05-.71Zm5.54,4.79c-.13.07-.35.12-.52.12-.07,0-.11,0-.13-.01-.33-.08-.62-.35-.7-.64-.07-.25,0-.62.09-.77.04-.05.38-.37,1.32-1.07,5.85-4.37,11.07-9.29,13.95-13.17,1.12-1.51,2.03-3.1,2.5-4.38.68-1.85.62-3.32-.22-5.05-.78-1.62-2.19-2.55-3.87-2.55-1.47,0-2.92.76-3.88,2.03-.26.34-.78,1.31-1.18,2.12-2.27,4.59-4.33,7.02-8.79,10.4-1.5,1.14-5.21,3.77-5.56,3.96-.02,0-.12.03-.26.03-.25,0-.48-.06-.57-.12-.2-.14-.35-.36-.39-.62-.05-.26.01-.52.16-.72.07-.07.63-.51,1.4-1.06,4.71-3.36,6.51-4.78,8.02-6.35,1.71-1.77,2.8-3.38,4.3-6.39.86-1.72,1.21-2.28,1.87-2.99,1.26-1.35,3.13-2.19,4.89-2.19.19,0,.38,0,.56.03,1.47.17,2.58.69,3.61,1.69,1.16,1.14,1.87,2.57,2.17,4.36.12.73.09,1.74-.07,2.57-.45,2.31-2.19,5.33-4.91,8.5-2.52,2.94-6.19,6.37-10.34,9.65-1.55,1.23-3.21,2.46-3.47,2.61Zm15.6,1.85c-.09.41-.5.73-.93.73-.1,0-.2-.02-.29-.05-.18-.07-.42-.28-.47-.38-.05-.11-.19-.46-.3-.8-.7-2.01-1.67-3.12-2.87-3.28-.06,0-.13-.01-.19-.01-1.2,0-2.8,1.45-3.94,2.66-.69.73-.92.87-1.14.87-.08,0-.17-.01-.3-.04-.26-.06-.59-.38-.64-.56-.14-.51-.18-.66,1.18-2.02,1.43-1.43,2.43-2.15,3.56-2.57.41-.15.44-.16,1.23-.17h.13c.67,0,.71.02,1.15.17.71.26,1.09.49,1.68,1.05.8.76,1.42,1.8,1.91,3.2.26.75.29.97.24,1.2Zm6.23-1.95c-.04.52-.52.84-.93.84-.12,0-.24-.03-.35-.08-.27-.12-1.34-.97-2.14-1.77-1.48-1.49-2.41-3.05-2.86-4.78-.45-1.73-.23-3.93.54-5.35.23-.42.55-.66.9-.66.17,0,.35.06.53.17.62.39.38,1.07.25,1.35-.42.88-.56,1.53-.55,2.56,0,.7.05,1.07.17,1.52.19.72.67,1.71,1.15,2.42.47.69,1.61,1.87,2.43,2.53.9.73.89.84.86,1.23Zm6.44-3c-.24.24-.42.28-.61.28-.22,0-.52-.07-.91-.22-.88-.34-1.77-.81-2.4-1.28-1.94-1.45-3.24-3.96-3.77-7.23-.32-1.97-.22-3.36.52-7.07.76-3.83.85-5.73.37-7.54-.54-2.05-1.92-3.84-3.98-5.18-1.56-1.01-3.22-1.51-5.07-1.51-1.87,0-3.49.5-5.1,1.56-2.02,1.33-3.44,3.09-4.91,6.08-.39.8-.9,1.74-1.1,2.04-1.46,2.21-4.1,4.68-7.26,6.8-.93.62-1.1.68-1.35.68-.43,0-.72-.29-.84-.56-.15-.33-.11-.67.11-.92.06-.06.4-.34.82-.62,2.97-1.96,5.56-4.36,6.93-6.4.19-.28.49-.83.69-1.26,1.19-2.53,2.18-4.07,3.56-5.49,2.19-2.27,4.69-3.5,7.65-3.76.28-.02.56-.04.83-.04,2.55,0,5.22,1.01,7.32,2.77,2.81,2.35,4.1,5.46,3.83,9.24-.08,1.23-.24,2.25-.66,4.4-.49,2.51-.6,3.27-.64,4.49-.03.96-.01,1.28.11,1.99.45,2.54,1.19,4.22,2.39,5.44.67.68,1.36,1.12,2.55,1.6.9.37.93.44,1.04.65.19.37.13.8-.15,1.07Zm2.25-3.66c-.15,0-.3-.04-.44-.11-.24-.13-1.29-1.13-2.06-2.07-.89-1.09-1.63-2.37-1.98-3.42-.3-.9-.37-1.42-.37-2.52,0-1.24.04-1.6.55-4.91.53-3.43.61-4.22.61-5.6,0-1.37-.09-1.93-.49-3.02-.25-.67-.79-1.79-1.18-2.45-1.12-1.91-2.93-3.79-4.72-4.93-2.26-1.43-5.11-2.22-8.02-2.22-2.25,0-4.38.47-6.16,1.37-1.26.63-2.39,1.45-3.55,2.57-1.32,1.28-2.29,2.57-3.88,5.12-.8,1.29-1.44,2.16-2.21,3.02-1.34,1.49-3.22,2.83-3.73,2.92h-.02c-.43,0-.82-.25-.96-.54-.03-.07-.07-.26-.07-.39,0-.35.09-.62.58-.9.63-.36,1.62-1.16,2.31-1.85,1.08-1.08,1.67-1.88,3.03-4.09,2.28-3.71,4.74-6.12,7.75-7.58,1.99-.97,3.94-1.44,6.31-1.52.22,0,.45-.01.67-.01,3.93,0,7.55,1.24,10.48,3.59,2.41,1.94,4.59,5.18,5.43,8.06.28.98.32,1.3.32,2.9,0,1.72-.05,2.13-.58,5.6-.65,4.19-.71,5.19-.42,6.33.35,1.35,1.31,2.85,2.86,4.46.87.91.87,1.01.87,1.24,0,.58-.47.93-.92.93Zm2.37-8.97c-.24,1.39-.49,2.5-.58,2.68-.14.29-.5.5-.87.5-.08,0-.16-.01-.24-.03-.2-.06-.39-.21-.51-.39-.13-.2-.2-.42.04-1.6.96-4.64,1.03-8.97.2-12.53-.16-.69-.28-1.08-.59-1.86-.33-.85-.15-1.1.15-1.36.17-.16.38-.24.59-.24.36,0,.7.24.9.61.34.68.79,2.23,1.03,3.6.55,3.1.5,6.87-.13,10.62Z"/><path class="cls-1" d="m462.66,140.19v-.16c1.12-.32,6.7-2.07,6.7-8.61,0-8.16-7.72-9.23-11-9.37v-4.82h-3.19v4.78h-3.19v-4.78h-3.19v4.78h-7.97v38.27h7.97v4.78h3.19v-4.78h3.19v4.78h3.19v-4.8c3.66-.1,12.44-1.13,12.44-10.83,0-6.7-5.74-8.93-8.13-9.25Zm-18.18-15.15h12.59c5.74,0,8.61,2.39,8.61,7.18,0,.96-.16,1.75-.48,2.55-.32.8-.96,1.44-1.59,2.07-.8.64-1.6,1.11-2.71,1.43s-2.39.48-3.83.48h-12.59v-13.71Zm21.84,28.22c-.64.96-1.28,1.75-2.23,2.39-.96.64-1.91,1.12-3.19,1.28-1.12.16-2.39.32-3.83.32h-12.59v-15.31h12.59c3.19,0,5.74.64,7.5,1.91,1.75,1.28,2.55,3.19,2.55,5.58,0,1.59-.32,2.87-.8,3.83Z"/><path class="cls-1" d="m463.13,145.84c-1.3-.95-3.39-1.45-6.06-1.45h-10.15v10.42h10.15c1.26,0,2.42-.14,3.52-.3.73-.09,1.3-.33,2.14-.89.51-.34.92-.78,1.46-1.58.23-.51.48-1.35.48-2.61,0-2.22-.88-3.12-1.54-3.6Z"/><path class="cls-1" d="m460.23,135.93c.66-.19,1.16-.45,1.76-.91.42-.42.83-.84.95-1.15.21-.53.3-1.02.3-1.64,0-2.46-.75-4.73-6.17-4.73h-10.15v8.82h10.15c1.2,0,2.26-.13,3.16-.39Z"/><path class="cls-1" d="m476.24,98.33h0c-23.61-11.27-52-1.23-63.27,22.39-7.04,14.75-5.76,31.37,1.94,44.51l-16.3,11.84-4.01-5.52-8.64,20.33,22-1.94-4.01-5.52,16.29-11.84c4.1,4.65,9.17,8.56,15.11,11.4,6.58,3.14,13.52,4.62,20.37,4.62,17.73,0,34.77-9.97,42.9-27.01,11.27-23.61,1.23-52-22.38-63.27Zm-15.45,64.21v2.53c0,1.35-1.09,2.44-2.44,2.44h-3.19c-.61,0-1.17-.22-1.59-.59-.43.37-.98.59-1.59.59h-3.19c-1.35,0-2.44-1.09-2.44-2.44v-2.34h-5.53c-1.35,0-2.44-1.09-2.44-2.44v-38.27c0-1.35,1.09-2.44,2.44-2.44h5.53v-2.34c0-1.35,1.09-2.44,2.44-2.44h3.19c.61,0,1.17.22,1.59.59.43-.37.99-.59,1.59-.59h3.19c1.35,0,2.44,1.09,2.44,2.44v2.59c6.94,1.03,11,5.25,11,11.6,0,4.07-1.71,6.7-3.64,8.37,2.75,1.85,5.07,4.99,5.07,9.65,0,7.45-4.5,12.13-12.44,13.1Z"/></g></svg>