<?xml version="1.0" encoding="UTF-8"?><svg id="Layer_2" xmlns="http://www.w3.org/2000/svg" viewBox="0 0 215.59 215.59"><defs><style>.iris-rings{fill:#00a0af;}.iris-center{fill:#ace3e5;}</style></defs><g id="Layer_1-2"><g id="Layer_1-2"><path class="iris-rings" d="M175.79,81.1c5.92-15.74,9.27-32.03,9.7-48-16.06-.32-32.58,2.37-48.54,7.77-6.88-15.31-16.06-29.23-27.06-40.87-11.64,11.21-21.34,24.69-28.79,39.8-15.74-5.92-32.03-9.27-48-9.7-.32,16.08,2.37,32.58,7.77,48.54-15.31,6.9-29.23,16.06-40.87,27.06,11.21,11.64,24.69,21.34,39.8,28.79-5.92,15.74-9.27,32.03-9.7,48,16.08.32,32.58-2.37,48.54-7.77,6.9,15.31,16.08,29.23,27.06,40.87,11.64-11.21,21.34-24.69,28.79-39.8,15.74,5.92,32.03,9.27,48,9.7.32-16.06-2.37-32.58-7.77-48.54,15.31-6.9,29.23-16.06,40.87-27.06-11.21-11.64-24.69-21.34-39.8-28.79M199.64,109.69c-8.72,7.02-18.34,12.73-28.47,17.47-2.6-6.26-5.72-12.3-9.16-18.22,3.67-5.83,6.9-11.75,9.7-17.79,10.14,5.06,19.52,11.21,27.93,18.54h0ZM173.97,44.1c-1.18,11.12-3.87,22.01-7.77,32.46-6.26-2.6-12.73-4.65-19.41-6.36-1.5-6.7-3.46-13.17-5.72-19.41,10.68-3.55,21.78-5.83,32.89-6.7h0ZM155.63,98.8c-1.73-2.48-3.55-4.97-5.51-7.45-.32-3.12-.75-6.26-1.18-9.27,4.42,1.3,8.72,2.92,12.94,4.65-1.94,4.1-3.99,8.09-6.24,12.07h0ZM161.03,131.14c-4.21,1.5-8.52,2.92-12.94,4.1.55-3.03.98-6.04,1.41-9.07,2.05-2.48,3.87-4.97,5.72-7.45,2.16,4.1,4.1,8.2,5.92,12.42h-.11ZM135.24,67.52c-3.03-.55-6.04-.98-9.07-1.39-2.48-2.05-4.97-3.87-7.45-5.72,4.1-2.16,8.2-4.1,12.42-5.92,1.5,4.21,2.92,8.52,4.1,12.94v.09h0ZM109.57,15.97c7.02,8.72,12.73,18.34,17.47,28.47-6.26,2.6-12.3,5.72-18.22,9.16-5.83-3.67-11.75-6.9-17.79-9.7,5.06-10.14,11.21-19.52,18.54-27.93h0ZM86.5,53.6c4.1,1.94,8.2,3.99,12.07,6.26-2.48,1.73-4.97,3.55-7.45,5.49-3.12.32-6.26.75-9.27,1.18,1.3-4.42,2.92-8.72,4.65-12.94h0ZM76.47,49.39c-2.6,6.26-4.65,12.73-6.36,19.41-6.7,1.5-13.17,3.44-19.41,5.72-3.55-10.68-5.83-21.78-6.7-32.89,11.09,1.21,22.01,3.9,32.46,7.77h0ZM66.02,89.53c-2.05,2.48-3.87,4.97-5.72,7.45-2.16-4.1-4.1-8.2-5.92-12.42,4.21-1.5,8.52-2.92,12.94-4.1-.55,3.03-.98,6.04-1.39,9.07h.09ZM66.54,133.63c-4.42-1.3-8.75-2.92-12.94-4.65,1.94-4.1,3.99-8.2,6.26-12.07,1.73,2.48,3.55,4.97,5.49,7.45.32,3.12.75,6.26,1.18,9.27h0ZM15.85,106.02c8.72-7.02,18.34-12.73,28.47-17.47,2.6,6.26,5.72,12.3,9.16,18.22-3.67,5.83-6.9,11.75-9.7,17.79-10.14-5.06-19.52-11.21-27.93-18.54h0ZM41.53,171.6c1.18-11.12,3.87-22.01,7.77-32.46,6.26,2.6,12.73,4.65,19.41,6.36,1.5,6.67,3.44,13.17,5.72,19.41-10.68,3.55-21.8,5.83-32.89,6.7h0ZM80.23,148.18c3.03.55,6.04.98,9.07,1.41,2.37,2.05,4.97,3.87,7.45,5.72-4.1,2.16-8.2,4.1-12.42,5.92-1.5-4.21-2.92-8.52-4.1-12.94v-.11h0ZM105.9,199.76c-7.02-8.72-12.73-18.34-17.47-28.47,6.26-2.6,12.3-5.72,18.22-9.16,5.83,3.67,11.75,6.9,17.79,9.7-5.06,10.11-11.21,19.5-18.54,27.93h0ZM128.89,162.1c-4.1-1.94-8.2-3.99-12.07-6.26,2.48-1.73,4.97-3.55,7.45-5.51,3.12-.32,6.26-.75,9.27-1.18-1.3,4.44-2.92,8.75-4.65,12.96h0ZM107.75,140.21c-17.91,0-32.35-14.44-32.35-32.35s14.44-32.35,32.35-32.35,32.35,14.44,32.35,32.35-14.44,32.35-32.35,32.35ZM139.03,166.32c2.6-6.26,4.65-12.73,6.36-19.41,6.67-1.5,13.17-3.46,19.41-5.72,3.55,10.68,5.83,21.78,6.67,32.89-11.09-1.18-21.98-3.9-32.44-7.77h0Z"/><circle class="iris-center" cx="107.79" cy="107.79" r="11.21"/></g></g></svg>