<svg width="150" height="50" viewBox="0 0 150 50" fill="none" xmlns="http://www.w3.org/2000/svg">
  <path d="m128.014 0v50.077h4.5l.1-8.948 8.844-.112v-41.017zm-28.385 19.008-21.3-.832c-3.566-.149-4.693-.329-4.693-3.128 0-2.619 1.218-3.546 4.655-3.546h19.358c4.654 0 4.884 1 4.935 3.084l.022.941h14.322v-.964c0-9.8-6.147-14.563-18.793-14.563h-21.16c-13.005 0-18.31 4.319-18.31 14.909 0 13.177 6.089 14.022 18.754 14.563l18.456.761c6.644.281 7.124 1.843 7.124 4.382 0 2.638-.988 3.893-6.6 3.893h-19.287c-2.7 0-4.657-1.288-4.657-3.061v-.964h-13.72v.964c0 10.393 4.983 14.631 17.2 14.631h23.865c12.216 0 17.2-4.519 17.2-15.6 0-13.8-6.562-15.051-17.369-15.467m-62.72 10.47c0 7.1-1.46 9.027-11.733 9.027-10.943 0-11.732-2.6-11.732-6.878v-4.224h-13.446v4.57c0 12.687 5.622 18.1 18.795 18.1h13.044c13.376 0 18.586-5.5 18.586-19.626v-30.45h-13.514z" fill="white"/>
</svg>
